<?xml version="1.0" encoding="utf-8"?>
<!-- Generator: Adobe Illustrator 27.3.1, SVG Export Plug-In . SVG Version: 6.00 Build 0)  -->
<svg version="1.1" id="Layer_1" xmlns="http://www.w3.org/2000/svg" xmlns:xlink="http://www.w3.org/1999/xlink" x="0px" y="0px"
	 viewBox="0 0 500 500" style="enable-background:new 0 0 500 500;" xml:space="preserve">
<style type="text/css">
	.st0{fill:#FFFFFF;}
</style>
<g>
	<g>
		<g>
			<path class="st0" d="M427.8,78h-17.6V67.5c0-11.4-9.2-20.6-20.6-20.6c-11.4,0-20.6,9.2-20.6,20.6V78H123.1V67.5
				c0-11.4-9.2-20.6-20.6-20.6c-11.4,0-20.6,9.2-20.6,20.6V78H64.3C28.9,78,0,106.8,0,142.3v246.5c0,35.5,28.9,64.3,64.3,64.3h363.5
				c35.5,0,64.3-28.9,64.3-64.3V142.3C492.1,106.8,463.2,78,427.8,78z M41.3,142.3c0-12.7,10.4-23.1,23.1-23.1h363.5
				c12.7,0,23.1,10.3,23.1,23.1v20.6H41.3V142.3z M450.8,388.8c0,12.7-10.4,23.1-23.1,23.1H64.3c-12.7,0-23.1-10.4-23.1-23.1V204.1
				h409.6V388.8z"/>
		</g>
	</g>
</g>
</svg>
